<svg xmlns="http://www.w3.org/2000/svg" width="366" height="52.792" viewBox="0 0 366 52.792"><defs><style>.a,.b{fill:#1d1d1b;}.b{stroke:#1d1d1b;stroke-miterlimit:10;stroke-width:1.6px;}.c{fill:#fff;}</style></defs><g transform="translate(-6.39 -16.63)"><path class="a" d="M66.99,72.581c0-3.227,2.226-3.383,6.535-3.383,2.436,0,3.782.068,4.641.947V69.077c0-1.157-.345-1.576-2.09-1.576H73.438c-1.3,0-1.671.115-1.712.954H67.41c0-3.2,1.576-3.734,5.331-3.734h5.176c3.058,0,4.682,1.461,4.682,4.242v7.767H78.376V75.375c-1.238,1.285-1.691,1.536-3.944,1.536H71.422c-2.706,0-4.452-.575-4.452-3.383Zm7.929,1.549c3.065,0,3.342-.46,3.342-1.252s-.257-1.2-2.706-1.2h-2c-1.874,0-2.273.419-2.273,1.394,0,.764.609,1.062,2.348,1.062Z" transform="translate(-19.595 -15.555)"/><path class="a" d="M94.29,64.913h4.174v2.253H98.5c.514-1.881,2.321-2.436,4.337-2.436,3.247,0,4.526,1.353,4.526,4.661a8.619,8.619,0,0,1-.047,1.042h-3.85c0-1.509-.352-2.226-2.131-2.226-1.536,0-2.6.582-2.6,2.03v6.535H94.29Z" transform="translate(-28.432 -15.559)"/><path class="a" d="M116.33,70.182c0-4.472,2.226-5.412,5.466-5.412h5.013c3.288,0,5.3,1.2,5.3,3.917v1.069H127.8c0-1.211-.629-1.651-2.571-1.651h-1.685c-1.854,0-2.706.514-2.706,1.813v1.576c0,1.529.967,1.989,2.361,1.989h2.273c1.252,0,2.388-.277,2.388-1.353v-.277h4.31V72.9c0,3.18-2.638,4.059-5.189,4.059h-4.546c-2.943,0-6.048-.555-6.048-5.608Z" transform="translate(-35.561 -15.571)"/><path class="a" d="M148.192,61.137H143.74V57.66h4.452Zm0,13.307H143.74V62.626h4.452Z" transform="translate(-44.428 -13.272)"/><path class="a" d="M155.6,57.66h4.452V74.445H155.6Z" transform="translate(-48.264 -13.272)"/><path class="a" d="M167.447,57.66h4.425V74.445H167.42Z" transform="translate(-52.087 -13.272)"/><path class="a" d="M177.844,72.581c0-3.227,2.226-3.383,6.535-3.383,2.436,0,3.782.068,4.641.947V69.077c0-1.157-.352-1.576-2.09-1.576h-2.618c-1.3,0-1.671.115-1.718.954h-4.31c0-3.2,1.576-3.734,5.331-3.734h5.155c3.065,0,4.688,1.461,4.688,4.242v7.767h-4.222V75.375c-1.231,1.279-1.691,1.529-3.917,1.529h-3.038c-2.706,0-4.452-.575-4.452-3.383Zm7.929,1.549c3.058,0,3.335-.46,3.335-1.252s-.25-1.2-2.706-1.2h-1.969c-1.881,0-2.273.419-2.273,1.394,0,.764.6,1.062,2.341,1.062Z" transform="translate(-55.454 -15.555)"/><path class="a" d="M209.1,73.021c0,.677.23,1.089,2.76,1.089h1.576c2.111,0,2.638-.162,2.638-.88s-.345-.974-1.921-.974h-4.174c-4.147,0-5.378-.927-5.378-4.174,0-2.943,2.368-3.383,5.412-3.383h3.105c5.818,0,6.84.812,6.887,3.592h-4.452c-.23-.677-.677-.812-3.315-.812s-3.058.068-3.058.88c0,.514.345.677,2.666.677h3.078c5.338,0,5.73,1.786,5.73,3.9,0,3.126-1.252,3.937-6.332,3.937h-4.215c-4.107,0-5.615-.947-5.615-3.87Z" transform="translate(-64.078 -15.549)"/><path class="a" d="M248.38,70.182c0-4.472,2.226-5.412,5.473-5.412h5.006c3.295,0,5.311,1.2,5.311,3.917v1.069h-4.31c0-1.211-.629-1.651-2.578-1.651h-1.718c-1.861,0-2.706.514-2.706,1.813v1.576c0,1.529.974,1.989,2.368,1.989H257.5c1.252,0,2.388-.277,2.388-1.353v-.277h4.31V72.9c0,3.18-2.645,4.059-5.2,4.059h-4.54c-2.943,0-6.055-.555-6.055-5.608Z" transform="translate(-78.275 -15.571)"/><path class="a" d="M275.42,57.66h4.452v6.86h.047c.792-1.644,2.341-2.084,4.736-2.084,2.754,0,6.6.115,6.6,5.216v6.765h-4.452V67.652c0-1.157-.927-1.739-2.875-1.739h-1.022c-1.9,0-3.038.88-3.038,2.571v5.96H275.42Z" transform="translate(-87.021 -13.272)"/><path class="a" d="M308.182,61.137H303.73V57.66h4.452Zm0,13.307H303.73V62.626h4.452Z" transform="translate(-96.178 -13.272)"/><path class="a" d="M315.59,57.66h4.452V74.445H315.59Z" transform="translate(-100.015 -13.272)"/><path class="a" d="M326,72.581c0-3.227,2.226-3.383,6.535-3.383,2.436,0,3.782.068,4.641.947V69.077c0-1.157-.352-1.576-2.09-1.576h-2.618c-1.3,0-1.671.115-1.718.954h-4.31c0-3.2,1.576-3.734,5.331-3.734h5.169c3.065,0,4.688,1.461,4.688,4.242v7.767h-4.222V75.375c-1.231,1.279-1.691,1.529-3.917,1.529h-3.038c-2.706,0-4.452-.575-4.452-3.383Zm7.929,1.549c3.058,0,3.335-.46,3.335-1.252s-.25-1.2-2.706-1.2h-1.969c-1.874,0-2.273.419-2.273,1.394,0,.764.6,1.062,2.341,1.062Z" transform="translate(-103.382 -15.555)"/><path class="a" d="M351.24,65h4.844l3.619,8.348L363.316,65h4.851l-5.683,11.826h-5.561Z" transform="translate(-111.546 -15.646)"/><path class="a" d="M377.851,70.182c0-4.472,2.226-5.412,5.473-5.412h3.105c4.736,0,6.677.995,6.677,5.1v1.955H382.283v.724c0,1.252.886,1.6,2.706,1.6h1.353c2.408,0,2.53-.677,2.53-1.353h4.167v.514c0,2.963-2.638,3.613-5.866,3.613h-3.335c-2.943,0-6.089-.555-6.089-5.608Zm10.946-.995c0-1.414-.677-1.671-3.247-1.671-2.9,0-3.247.257-3.247,1.671Z" transform="translate(-120.121 -15.571)"/><path class="a" d="M404.16,64.913h4.174v2.253h.041c.514-1.881,2.321-2.436,4.337-2.436,3.247,0,4.526,1.353,4.526,4.661a8.617,8.617,0,0,1-.047,1.042h-3.849c0-1.509-.352-2.226-2.131-2.226-1.536,0-2.6.582-2.6,2.03v6.535H404.16Z" transform="translate(-128.664 -15.559)"/><path class="a" d="M427.526,66.861H425.3V63.667h2.226V60.88h4.452v2.787h6.914v3.2h-6.914v4.546c0,.88.677,1.069,1.718,1.069,1.434,0,1.833-.325,1.833-1.421V70.27h3.9V71.7c0,2.253-1.488,3.965-5.033,3.965h-1.766c-2.706,0-5.1-.852-5.1-4.127Z" transform="translate(-135.502 -14.313)"/><path class="a" d="M470.74,73.021c0,.677.237,1.089,2.76,1.089h1.576c2.111,0,2.645-.162,2.645-.88s-.345-.974-1.928-.974h-4.167c-4.154,0-5.378-.927-5.378-4.174,0-2.943,2.361-3.383,5.412-3.383h3.105c5.818,0,6.84.812,6.887,3.592H477.2c-.237-.677-.677-.812-3.315-.812s-3.065.068-3.065.88c0,.514.352.677,2.666.677h3.085c5.331,0,5.73,1.786,5.73,3.9,0,3.126-1.258,3.937-6.332,3.937h-4.222c-4.1,0-5.609-.947-5.609-3.87Z" transform="translate(-148.712 -15.549)"/><path class="a" d="M496.52,75.48h4.871v4.736H496.52Z" transform="translate(-158.539 -19.036)"/><path class="a" d="M509.75,72.581c0-3.227,2.226-3.383,6.542-3.383,2.436,0,3.782.068,4.634.947V69.077c0-1.157-.345-1.576-2.084-1.576h-2.618c-1.3,0-1.671.115-1.718.954H510.2c0-3.2,1.576-3.734,5.331-3.734H520.7c3.058,0,4.682,1.461,4.682,4.242v7.767h-4.215V75.375c-1.231,1.279-1.7,1.529-3.924,1.529H514.2c-2.706,0-4.452-.575-4.452-3.383Zm7.936,1.549c3.058,0,3.335-.46,3.335-1.252s-.277-1.2-2.713-1.2h-1.969c-1.881,0-2.273.419-2.273,1.394,0,.764.6,1.062,2.341,1.062Z" transform="translate(-162.818 -15.555)"/><path class="a" d="M539.68,75.48h4.864v4.736H539.68Z" transform="translate(-172.499 -19.036)"/><line class="b" x2="366" transform="translate(6.39 68.622)"/><path class="a" d="M27.233,38.66h-10.3A3.28,3.28,0,0,0,13.621,41.1c-.609,2.557-1.279,7.672-1.279,7.672s-.988,2.916,3.254,2.916h13.91L28.978,48.3H18.046l.46-6.089h9.546Z" transform="translate(-1.893 -7.125)"/><path class="a" d="M26.247,18.727a2.172,2.172,0,0,0-1.8-2.1H19.462a2.175,2.175,0,0,0-1.806,2.1c-.291,1.982-1.745,10.148-1.745,10.148h3.958l.467-5.23h3.241l.46,5.176h3.958S26.538,20.7,26.247,18.727Zm-2.706,3.18H20.335l.095-1.691h2.984Z" transform="translate(-3.079)"/><path class="a" d="M28.417,61.15H21.9l.23,4.891H15.759L16,61.15H9.467L7.14,74.376h7.915l.115-5.764h7.543l.122,5.764h7.909Z" transform="translate(-0.243 -14.401)"/><path class="c" d="M27.233,41.08h-10.3a3.29,3.29,0,0,0-3.315,2.381c-.609,2.5-1.279,7.51-1.279,7.51s-.988,2.848,3.254,2.848h13.91L28.992,50.5H18.046l.46-5.994h9.546Z" transform="translate(-1.893 -7.908)"/><path class="a" d="M29.736,54.006h-14.3c-1.617,0-2.706-.406-3.295-1.2a2.463,2.463,0,0,1-.277-2.1h0s.677-4.986,1.265-7.442a3.518,3.518,0,0,1,3.592-2.645H27.341l.974,4.107H18.682l-.413,5.318H29.094ZM16.767,41.267a2.9,2.9,0,0,0-2.977,2.124c-.575,2.456-1.272,7.442-1.279,7.476a1.908,1.908,0,0,0,.183,1.556,3.229,3.229,0,0,0,2.706.907H28.931l-.413-2.638h-11l.487-6.671h9.472L26.8,41.267Z" transform="translate(-1.731 -7.758)"/><path class="c" d="M26.247,20.727a2.172,2.172,0,0,0-1.8-2.1H19.462a2.175,2.175,0,0,0-1.806,2.1c-.291,1.982-1.745,10.148-1.745,10.148h3.958l.467-5.23h3.241l.46,5.176h3.958S26.538,22.7,26.247,20.727Zm-2.706,2.5H20.335l.095-1.691h2.984Z" transform="translate(-3.079 -0.647)"/><path class="a" d="M28.208,31.025H23.54l-.467-5.176H20.455l-.467,5.176H15.32l.068-.4c0-.081,1.461-8.159,1.745-10.107a2.546,2.546,0,0,1,2.111-2.388h5.013a2.541,2.541,0,0,1,2.138,2.388c.284,1.948,1.725,10.026,1.739,10.107Zm-4.059-.677H27.4c-.3-1.658-1.427-8.024-1.678-9.735s-1.448-1.8-1.5-1.806H19.271s-1.225.135-1.468,1.806-1.353,8.078-1.678,9.735h3.247l.467-5.176H23.7Zm-.406-6.941H19.785l.135-2.361h3.633ZM20.5,22.73h2.51l-.081-1.015H20.556Z" transform="translate(-2.889 -0.485)"/><path class="c" d="M28.417,64.56H22.369l.23,4.533H15.286l.237-4.533H9.467L7.14,76.832h7.915l.115-5.351h7.543l.122,5.351h7.909Z" transform="translate(-0.243 -15.504)"/><path class="a" d="M30.956,77.009H22.31l-.122-5.351h-6.88l-.115,5.351H6.54L9,64.06H15.68l-.23,4.533h6.6l-.23-4.533H28.5Zm-7.99-.677h7.178l-2.2-11.6H22.533l.237,4.533H14.74l.23-4.533H9.557l-2.2,11.6H14.53l.115-5.351h8.206Z" transform="translate(-0.049 -15.342)"/></g></svg>