<svg xmlns="http://www.w3.org/2000/svg" width="117.68" height="217.067" viewBox="0 0 117.68 217.067"><defs><style>.a{fill:#1d1d1b;}.b{fill:#fff;}</style></defs><g transform="translate(-6.491 -16.63)"><path class="a" d="M84.492,38.663H34.864S21.821,38.076,18.886,50.4s-6.163,36.977-6.163,36.977-4.761,14.054,15.684,14.054H95.448L92.9,85.129H40.211l2.217-29.347H88.437Z" transform="translate(12.844 49.801)"/><path class="a" d="M65.734,26.738c-1.4-9.554-8.674-10.108-8.674-10.108H33.029s-7.3.554-8.706,10.108S15.91,75.649,15.91,75.649H34.985l2.25-25.205H52.854l2.217,24.945H74.147S67.136,36.26,65.734,26.738ZM52.691,42.064H37.235l.457-8.152h14.38Z" transform="translate(21.135 0)"/><path class="a" d="M109.69,61.15H78.257l1.109,23.575H48.682L49.823,61.15H18.357L7.14,124.9H45.291l.554-27.781H82.2l.587,27.781h38.118Z" transform="translate(1.308 100.648)"/><path class="b" d="M84.492,41.083H34.864s-13.043-.554-15.978,11.478-6.163,36.194-6.163,36.194-4.761,13.728,15.684,13.728H95.448L92.97,86.472H40.211l2.217-28.89H88.437Z" transform="translate(12.844 55.272)"/><path class="a" d="M98.472,105.166H29.54c-7.793,0-13.043-1.956-15.88-5.771a11.869,11.869,0,0,1-1.337-10.141h0s3.261-24.032,6.1-35.868A16.956,16.956,0,0,1,35.735,40.636H86.929l4.7,19.793H45.192L43.2,86.058H95.374Zm-62.508-61.4c-2.283,0-12.1.522-14.347,10.239-2.772,11.836-6.13,35.868-6.163,36.031a9.2,9.2,0,0,0,.88,7.5c2.054,2.869,6.521,4.369,13.043,4.369H94.592L92.6,89.188H39.583l2.348-32.151h45.65L84.32,43.766Z" transform="translate(11.711 54.219)"/><path class="b" d="M65.734,28.738c-1.4-9.554-8.674-10.108-8.674-10.108H33.029s-7.3.554-8.706,10.108S15.91,77.649,15.91,77.649H34.985l2.25-25.205H52.854l2.217,24.945H74.147S67.136,38.26,65.734,28.738ZM52.691,40.8H37.235l.457-8.152h14.38Z" transform="translate(21.135 4.521)"/><path class="a" d="M77.437,80.28h-22.5l-2.25-24.945H40.069L37.819,80.28H15.32l.326-1.924c0-.391,7.043-39.324,8.413-48.715,1.272-8.576,7.206-11.282,10.173-11.51H58.394c3.1.228,9.032,2.935,10.3,11.51,1.37,9.391,8.315,48.324,8.38,48.715ZM57.873,77.019H73.524c-1.435-7.989-6.88-38.672-8.087-46.922S58.46,21.423,58.2,21.391H34.363s-5.9.652-7.076,8.706S20.765,69.03,19.2,77.019H34.852L37.1,52.074H55.688ZM55.916,43.564H36.841l.652-11.38H55ZM40.265,40.3h12.1l-.391-4.891H40.558Z" transform="translate(19.801 3.391)"/><path class="b" d="M109.69,64.56H80.539l1.109,21.847H46.4L47.541,64.56H18.357L7.14,123.71H45.291l.554-25.792H82.2l.587,25.792h38.118Z" transform="translate(1.308 108.357)"/><path class="a" d="M124.22,126.47H82.548l-.587-25.792H48.8l-.554,25.792H6.54L18.376,64.06H50.593L49.484,85.907H81.276L80.167,64.06h32.216ZM85.711,123.21h34.6l-10.6-55.889H83.624l1.141,21.847H46.06l1.109-21.847H21.083l-10.6,55.889H45.049L45.6,97.417H85.156Z" transform="translate(-0.049 107.227)"/></g></svg>